<svg width="50" height="50" viewBox="0 0 50 50" fill="none" xmlns="http://www.w3.org/2000/svg">
<g clip-path="url(#clip0_39_2)">
<path d="M48.0345 15.2688C46.7756 12.2919 44.9737 9.61779 42.6787 7.32211C40.3821 5.02712 37.7075 3.22434 34.7319 1.96551C31.6498 0.661665 28.3751 0.00012207 25 0.00012207C21.6254 0.00012207 18.351 0.661567 15.2687 1.96551C12.2918 3.22434 9.61766 5.02722 7.32189 7.32211C5.027 9.61779 3.22422 12.2919 1.96529 15.2688C0.661543 18.3511 0 21.6257 0 25.0001C0 28.3752 0.661445 31.6498 1.96539 34.732C3.22422 37.7076 5.0271 40.3823 7.32199 42.6773C9.61766 44.9738 12.2918 46.7757 15.2688 48.0345C18.3511 49.3377 21.6255 49.9999 25 49.9999C28.3752 49.9999 31.6499 49.3377 34.732 48.0345C37.7075 46.7756 40.3822 44.9737 42.6788 42.6773C44.9738 40.3823 46.7757 37.7075 48.0346 34.732C49.3378 31.6498 50 28.3752 50 25.0001C49.9999 21.6257 49.3377 18.3511 48.0345 15.2688Z" fill="#ED5564"/>
<path d="M0.00994873 25.7019C0.0954005 28.8284 0.751474 31.8634 1.96538 34.732C3.2242 37.7075 5.02709 40.3822 7.32198 42.6772C9.61765 44.9738 12.2918 46.7757 15.2688 48.0345C18.3511 49.3377 21.6255 49.9999 25 49.9999C28.3752 49.9999 31.6498 49.3377 34.732 48.0345C37.7075 46.7756 40.3822 44.9737 42.6788 42.6772C44.9738 40.3822 46.7757 37.7074 48.0346 34.732C49.2493 31.8634 49.9054 28.8284 49.9908 25.7019H0.00994873Z" fill="#E6E9ED"/>
<path d="M49.8809 27.4629C49.9602 26.648 49.9999 25.8271 49.9999 25.0001C49.9999 24.0708 49.9495 23.1492 49.8504 22.2374C48.6083 22.4289 46.8245 22.6785 44.577 22.9263C40.3105 23.397 33.4532 23.9586 25 23.9586C16.5474 23.9586 9.68935 23.397 5.42369 22.9263C3.17539 22.6784 1.39233 22.4289 0.150297 22.2374C0.0503921 23.1492 0 24.0709 0 25.0001C0 25.8271 0.0396496 26.6481 0.119046 27.4629C4.17483 28.0732 13.1103 29.1657 25 29.1657C36.8896 29.1657 45.825 28.0732 49.8809 27.4629Z" fill="#434A54"/>
<path d="M30.2093 26.0414C30.2093 28.9183 27.8761 31.2499 25 31.2499C22.1237 31.2499 19.7914 28.9183 19.7914 26.0414C19.7914 23.165 22.1237 20.8335 25 20.8335C27.8761 20.8336 30.2093 23.1651 30.2093 26.0414Z" fill="#E6E9ED"/>
<path d="M25 16.6665C19.8303 16.6665 15.625 20.8726 15.625 26.0415C15.625 31.2104 19.8304 35.4156 25 35.4156C30.1695 35.4156 34.3748 31.2103 34.3748 26.0415C34.3748 20.8726 30.1696 16.6665 25 16.6665ZM25 30.2094C22.7028 30.2094 20.8335 28.3386 20.8335 26.0415C20.8335 23.7443 22.7027 21.8751 25 21.8751C27.298 21.8751 29.1655 23.7443 29.1655 26.0415C29.1655 28.3385 27.298 30.2094 25 30.2094Z" fill="#434A54"/>
<path opacity="0.2" d="M48.0345 15.2688C46.7756 12.2919 44.9737 9.61779 42.6787 7.32211C40.3822 5.02712 37.7075 3.22434 34.7319 1.96551C31.6498 0.661665 28.3752 0.00012207 25 0.00012207C24.6513 0.00012207 24.3041 0.00773948 23.9585 0.0215094C26.9654 0.143583 29.8827 0.795946 32.6476 1.96551C35.6261 3.22434 38.2995 5.02722 40.5943 7.32211C42.8893 9.61779 44.6929 12.2919 45.9516 15.2688C47.2562 18.3511 47.9154 21.6257 47.9154 25.0002C47.9154 28.3753 47.2562 31.6499 45.9516 34.7321C44.6928 37.7077 42.8893 40.3824 40.5943 42.6773C38.2995 44.9739 35.6261 46.7758 32.6476 48.0346C29.8827 49.2035 26.9653 49.8566 23.9585 49.9786C24.3041 49.9924 24.6512 50 25 50C28.3752 50 31.6498 49.3378 34.7319 48.0346C37.7075 46.7757 40.3822 44.9738 42.6787 42.6773C44.9737 40.3824 46.7756 37.7076 48.0345 34.7321C49.3377 31.6499 49.9999 28.3753 49.9999 25.0002C49.9999 21.6257 49.3377 18.3511 48.0345 15.2688Z" fill="white"/>
<path opacity="0.1" d="M1.96539 34.732C3.22422 37.7076 5.0271 40.3823 7.32199 42.6773C9.61766 44.9738 12.2918 46.7757 15.2688 48.0345C18.3511 49.3377 21.6255 49.9999 25 49.9999C25.3487 49.9999 25.6959 49.9923 26.0415 49.9785C23.0347 49.8565 20.1165 49.2033 17.3516 48.0345C14.3746 46.7756 11.7013 44.9737 9.40565 42.6773C7.10997 40.3823 5.30787 37.7075 4.04826 34.732C2.74432 31.6499 2.08365 28.3753 2.08365 25.0001C2.08365 21.6256 2.74432 18.351 4.04817 15.2687C5.30777 12.2918 7.10988 9.61759 9.40555 7.3228C11.7012 5.02713 14.3745 3.22424 17.3515 1.96541C20.1164 0.795849 23.0346 0.143486 26.0414 0.0214118C25.6958 0.00773948 25.3486 0.00012207 25 0.00012207C21.6254 0.00012207 18.351 0.661567 15.2687 1.96551C12.2918 3.22434 9.61766 5.02722 7.32189 7.3229C5.027 9.61779 3.22422 12.2919 1.96529 15.2688C0.661543 18.3511 0 21.6257 0 25.0001C0 28.3752 0.661543 31.6499 1.96539 34.732Z" fill="black"/>
</g>
<defs>
<clipPath id="clip0_39_2">
<rect width="50" height="50" fill="white"/>
</clipPath>
</defs>
</svg>
